<svg width="32" height="32" viewBox="0 0 32 32" fill="none" xmlns="http://www.w3.org/2000/svg">
<path d="M19.1667 10.3734V9.33337C19.1667 9.06004 18.94 8.83337 18.6667 8.83337C18.3933 8.83337 18.1667 9.06004 18.1667 9.33337V10.3334H13.8333V9.33337C13.8333 9.06004 13.6067 8.83337 13.3333 8.83337C13.06 8.83337 12.8333 9.06004 12.8333 9.33337V10.3734C11.0333 10.54 10.16 11.6134 10.0267 13.2067C10.0133 13.4 10.1733 13.56 10.36 13.56H21.64C21.8333 13.56 21.9933 13.3934 21.9733 13.2067C21.84 11.6134 20.9667 10.54 19.1667 10.3734Z" fill="#006E1C"/>
<path d="M21.3333 14.5601H10.6667C10.3 14.5601 10 14.8601 10 15.2267V19.3334C10 21.3334 11 22.6667 13.3333 22.6667H18.6667C21 22.6667 22 21.3334 22 19.3334V15.2267C22 14.8601 21.7 14.5601 21.3333 14.5601ZM14.14 20.1401C14.0733 20.2001 14 20.2467 13.92 20.2801C13.84 20.3134 13.7533 20.3334 13.6667 20.3334C13.58 20.3334 13.4933 20.3134 13.4133 20.2801C13.3333 20.2467 13.26 20.2001 13.1933 20.1401C13.0733 20.0134 13 19.8401 13 19.6667C13 19.4934 13.0733 19.3201 13.1933 19.1934C13.26 19.1334 13.3333 19.0867 13.4133 19.0534C13.5733 18.9867 13.76 18.9867 13.92 19.0534C14 19.0867 14.0733 19.1334 14.14 19.1934C14.26 19.3201 14.3333 19.4934 14.3333 19.6667C14.3333 19.8401 14.26 20.0134 14.14 20.1401ZM14.28 17.5867C14.2467 17.6667 14.2 17.7401 14.14 17.8067C14.0733 17.8667 14 17.9134 13.92 17.9467C13.84 17.9801 13.7533 18.0001 13.6667 18.0001C13.58 18.0001 13.4933 17.9801 13.4133 17.9467C13.3333 17.9134 13.26 17.8667 13.1933 17.8067C13.1333 17.7401 13.0867 17.6667 13.0533 17.5867C13.02 17.5067 13 17.4201 13 17.3334C13 17.2467 13.02 17.1601 13.0533 17.0801C13.0867 17.0001 13.1333 16.9267 13.1933 16.8601C13.26 16.8001 13.3333 16.7534 13.4133 16.7201C13.5733 16.6534 13.76 16.6534 13.92 16.7201C14 16.7534 14.0733 16.8001 14.14 16.8601C14.2 16.9267 14.2467 17.0001 14.28 17.0801C14.3133 17.1601 14.3333 17.2467 14.3333 17.3334C14.3333 17.4201 14.3133 17.5067 14.28 17.5867ZM16.4733 17.8067C16.4067 17.8667 16.3333 17.9134 16.2533 17.9467C16.1733 17.9801 16.0867 18.0001 16 18.0001C15.9133 18.0001 15.8267 17.9801 15.7467 17.9467C15.6667 17.9134 15.5933 17.8667 15.5267 17.8067C15.4067 17.6801 15.3333 17.5067 15.3333 17.3334C15.3333 17.1601 15.4067 16.9867 15.5267 16.8601C15.5933 16.8001 15.6667 16.7534 15.7467 16.7201C15.9067 16.6467 16.0933 16.6467 16.2533 16.7201C16.3333 16.7534 16.4067 16.8001 16.4733 16.8601C16.5933 16.9867 16.6667 17.1601 16.6667 17.3334C16.6667 17.5067 16.5933 17.6801 16.4733 17.8067Z" fill="#006E1C"/>
<circle cx="16" cy="16" r="16" fill="#27A54E" fill-opacity="0.3"/>
</svg>
