<svg width="32" height="32" viewBox="0 0 32 32" fill="none" xmlns="http://www.w3.org/2000/svg">
<circle cx="16" cy="16" r="16" fill="#27A54E" fill-opacity="0.3"/>
<path d="M18.6667 9.33337H13.3333C11 9.33337 10 10.6667 10 12.6667V19.3334C10 21.3334 11 22.6667 13.3333 22.6667H18.6667C21 22.6667 22 21.3334 22 19.3334V12.6667C22 10.6667 21 9.33337 18.6667 9.33337ZM13.3333 16.1667H16C16.2733 16.1667 16.5 16.3934 16.5 16.6667C16.5 16.94 16.2733 17.1667 16 17.1667H13.3333C13.06 17.1667 12.8333 16.94 12.8333 16.6667C12.8333 16.3934 13.06 16.1667 13.3333 16.1667ZM18.6667 19.8334H13.3333C13.06 19.8334 12.8333 19.6067 12.8333 19.3334C12.8333 19.06 13.06 18.8334 13.3333 18.8334H18.6667C18.94 18.8334 19.1667 19.06 19.1667 19.3334C19.1667 19.6067 18.94 19.8334 18.6667 19.8334ZM20.3333 14.1667H19C17.9867 14.1667 17.1667 13.3467 17.1667 12.3334V11C17.1667 10.7267 17.3933 10.5 17.6667 10.5C17.94 10.5 18.1667 10.7267 18.1667 11V12.3334C18.1667 12.7934 18.54 13.1667 19 13.1667H20.3333C20.6067 13.1667 20.8333 13.3934 20.8333 13.6667C20.8333 13.94 20.6067 14.1667 20.3333 14.1667Z" fill="#006E1C"/>
</svg>
